<?xml version="1.0" encoding="UTF-8"?>
<!DOCTYPE svg PUBLIC "-//W3C//DTD SVG 1.1//EN" "http://www.w3.org/Graphics/SVG/1.1/DTD/svg11.dtd">
<svg xmlns="http://www.w3.org/2000/svg" version="1.1" width="512px" height="512px" style="shape-rendering:geometricPrecision; text-rendering:geometricPrecision; image-rendering:optimizeQuality; fill-rule:evenodd; clip-rule:evenodd" xmlns:xlink="http://www.w3.org/1999/xlink">
<g><path style="opacity:0.999" fill="#d99c61" d="M 392.5,42.5 C 384.489,46.1735 380.823,52.5068 381.5,61.5C 380.5,61.5 379.5,61.5 378.5,61.5C 365.186,57.9167 351.852,57.7501 338.5,61C 332.232,65.9945 331.898,71.3279 337.5,77C 339.034,77.923 340.701,78.423 342.5,78.5C 364.445,74.1552 383.445,79.6552 399.5,95C 405.084,96.3166 409.084,94.4833 411.5,89.5C 420.374,89.2827 429.04,87.7827 437.5,85C 441.048,82.953 443.715,80.1197 445.5,76.5C 448.478,80.4434 450.978,84.7768 453,89.5C 463.497,116.314 470.83,143.981 475,172.5C 480.465,199.608 483.631,226.942 484.5,254.5C 484.622,264.909 483.955,275.242 482.5,285.5C 474.103,281.57 465.436,280.737 456.5,283C 447.877,286.955 440.377,292.455 434,299.5C 431.806,302.554 430.139,305.888 429,309.5C 428.333,317.167 428.333,324.833 429,332.5C 432.371,337.777 437.204,340.943 443.5,342C 451.062,344.297 458.395,343.797 465.5,340.5C 453.141,367.695 434.475,389.528 409.5,406C 408.552,406.483 407.552,406.649 406.5,406.5C 398.281,401.05 389.281,398.55 379.5,399C 364.274,404.626 357.607,415.46 359.5,431.5C 359.703,433.39 359.037,434.89 357.5,436C 334.31,449.761 309.977,461.095 284.5,470C 251.665,479.773 219.332,478.607 187.5,466.5C 191.99,459.88 194.323,452.547 194.5,444.5C 194.046,436.73 192.88,429.063 191,421.5C 189.545,418.088 187.712,414.921 185.5,412C 164.789,398.667 146.289,401.167 130,419.5C 126.797,423.608 125.297,428.275 125.5,433.5C 124.842,434.398 124.176,435.398 123.5,436.5C 97.9097,423.398 73.9097,408.731 51.5,392.5C 27.5155,365.847 13.1822,334.513 8.5,298.5C 17.7119,307.441 28.7119,311.941 41.5,312C 49.9742,308.859 55.8075,303.026 59,294.5C 59.6583,292.2 60.1583,289.867 60.5,287.5C 54.8373,266 41.004,254 19,251.5C 17.1667,251.667 15.3333,251.833 13.5,252C 11.1829,254.157 8.51624,255.657 5.5,256.5C 5.25468,227.185 8.08801,198.185 14,169.5C 22.2848,139.57 38.1181,114.57 61.5,94.5C 64.4686,95.3287 67.4686,95.4954 70.5,95C 77.1562,89.3346 84.4895,84.6679 92.5,81C 97.302,78.8974 102.302,77.7308 107.5,77.5C 107.502,82.3843 109.169,86.5509 112.5,90C 129.012,98.8345 144.012,96.8345 157.5,84C 164.706,77.726 170.039,70.226 173.5,61.5C 173.685,52.365 170.352,44.865 163.5,39C 160.352,37.5765 157.352,36.0765 154.5,34.5C 180.64,22.9632 207.973,15.4632 236.5,12C 266.557,6.5322 296.223,8.19886 325.5,17C 348.361,24.4485 370.695,32.9485 392.5,42.5 Z"/></g>
<g><path style="opacity:0.994" fill="#ad784c" d="M 154.5,34.5 C 157.352,36.0765 160.352,37.5765 163.5,39C 170.352,44.865 173.685,52.365 173.5,61.5C 170.039,70.226 164.706,77.726 157.5,84C 144.012,96.8345 129.012,98.8345 112.5,90C 109.169,86.5509 107.502,82.3843 107.5,77.5C 109.304,76.838 111.304,76.5046 113.5,76.5C 119.151,77.5007 124.818,78.0007 130.5,78C 138.835,73.3089 139.502,67.6423 132.5,61C 124.945,59.1205 117.278,58.2871 109.5,58.5C 114.264,49.2354 121.264,42.0687 130.5,37C 138.195,33.414 146.195,32.5806 154.5,34.5 Z"/></g>
<g><path style="opacity:1" fill="#fcec9b" d="M 239.5,34.5 C 245,33.8314 247.167,36.1647 246,41.5C 238.167,48 230.333,54.5 222.5,61C 216.846,64.0498 214.013,62.5498 214,56.5C 222.692,49.3018 231.192,41.9684 239.5,34.5 Z"/></g>
<g><path style="opacity:0.996" fill="#ad784c" d="M 416.5,39.5 C 418.955,45.7937 422.455,51.4604 427,56.5C 433.09,63.0957 439.59,69.0957 446.5,74.5C 446.167,75.1667 445.833,75.8333 445.5,76.5C 443.715,80.1197 441.048,82.953 437.5,85C 429.04,87.7827 420.374,89.2827 411.5,89.5C 412.511,87.5976 412.678,85.5976 412,83.5C 403.211,72.5239 392.045,65.1905 378.5,61.5C 379.5,61.5 380.5,61.5 381.5,61.5C 380.823,52.5068 384.489,46.1735 392.5,42.5C 400.353,39.1185 408.353,38.1185 416.5,39.5 Z"/></g>
<g><path style="opacity:1" fill="#996842" d="M 416.5,39.5 C 419.941,39.3011 423.274,39.8011 426.5,41C 431.167,43.3333 435.833,45.6667 440.5,48C 446.425,53.5031 448.758,60.3364 447.5,68.5C 447.483,70.5648 447.15,72.5648 446.5,74.5C 439.59,69.0957 433.09,63.0957 427,56.5C 422.455,51.4604 418.955,45.7937 416.5,39.5 Z"/></g>
<g><path style="opacity:0.971" fill="#020100" d="M 109.5,58.5 C 117.278,58.2871 124.945,59.1205 132.5,61C 139.502,67.6423 138.835,73.3089 130.5,78C 124.818,78.0007 119.151,77.5007 113.5,76.5C 111.304,76.5046 109.304,76.838 107.5,77.5C 102.302,77.7308 97.302,78.8974 92.5,81C 84.4895,84.6679 77.1562,89.3346 70.5,95C 67.4686,95.4954 64.4686,95.3287 61.5,94.5C 58.6757,90.6399 57.8423,86.3065 59,81.5C 72.6341,66.9349 89.4675,59.2682 109.5,58.5 Z"/></g>
<g><path style="opacity:1" fill="#050302" d="M 378.5,61.5 C 392.045,65.1905 403.211,72.5239 412,83.5C 412.678,85.5976 412.511,87.5976 411.5,89.5C 409.084,94.4833 405.084,96.3166 399.5,95C 383.445,79.6552 364.445,74.1552 342.5,78.5C 340.701,78.423 339.034,77.923 337.5,77C 331.898,71.3279 332.232,65.9945 338.5,61C 351.852,57.7501 365.186,57.9167 378.5,61.5 Z"/></g>
<g><path style="opacity:1" fill="#c48b56" d="M 447.5,68.5 C 451.402,70.8926 454.902,73.8926 458,77.5C 469.835,92.1608 478.835,108.494 485,126.5C 489.29,139.662 492.957,152.995 496,166.5C 501.729,195.88 506.895,225.213 511.5,254.5C 511.5,269.167 511.5,283.833 511.5,298.5C 508.014,336.8 494.514,371.134 471,401.5C 457.691,416.649 442.191,428.982 424.5,438.5C 422.675,426.549 417.342,416.382 408.5,408C 407.906,407.536 407.239,407.369 406.5,407.5C 406.5,407.167 406.5,406.833 406.5,406.5C 407.552,406.649 408.552,406.483 409.5,406C 434.475,389.528 453.141,367.695 465.5,340.5C 465.5,339.833 465.833,339.5 466.5,339.5C 474.651,334.864 481.818,328.864 488,321.5C 494.326,313.215 495.326,304.215 491,294.5C 488.953,290.952 486.12,288.285 482.5,286.5C 482.5,286.167 482.5,285.833 482.5,285.5C 483.955,275.242 484.622,264.909 484.5,254.5C 483.631,226.942 480.465,199.608 475,172.5C 470.83,143.981 463.497,116.314 453,89.5C 450.978,84.7768 448.478,80.4434 445.5,76.5C 445.833,75.8333 446.167,75.1667 446.5,74.5C 447.15,72.5648 447.483,70.5648 447.5,68.5 Z"/></g>
<g><path style="opacity:1" fill="#fdfcfc" d="M 113.5,102.5 C 162.119,98.7136 197.286,118.38 219,161.5C 233.223,199.28 227.89,233.947 203,265.5C 170.43,298.795 132.263,307.295 88.5,291C 43.2792,267.394 24.4459,230.227 32,179.5C 43.5248,137.139 70.6915,111.472 113.5,102.5 Z"/></g>
<g><path style="opacity:1" fill="#fdfcfc" d="M 327.5,102.5 C 377.14,98.7264 412.64,119.06 434,163.5C 448.841,206.981 439.674,244.481 406.5,276C 374.687,300.462 340.02,305.462 302.5,291C 264.416,272.232 245.082,241.565 244.5,199C 246.699,155.145 268.032,124.812 308.5,108C 314.975,106.216 321.308,104.382 327.5,102.5 Z"/></g>
<g><path style="opacity:1" fill="#010101" d="M 125.5,127.5 C 170.732,124.677 199.232,145.01 211,188.5C 214.261,230.509 196.095,258.342 156.5,272C 116.962,279.314 88.1287,265.147 70,229.5C 57.3846,194.118 65.5512,164.618 94.5,141C 104.046,134.438 114.379,129.938 125.5,127.5 Z"/></g>
<g><path style="opacity:1" fill="#010101" d="M 320.5,127.5 C 365.732,124.677 394.232,145.01 406,188.5C 409.261,230.509 391.095,258.342 351.5,272C 311.962,279.314 283.129,265.147 265,229.5C 251.792,190.791 261.959,159.958 295.5,137C 303.522,132.641 311.855,129.474 320.5,127.5 Z"/></g>
<g><path style="opacity:1" fill="#fafafa" d="M 116.5,137.5 C 128.074,136.663 131.907,141.663 128,152.5C 120.456,156.022 113.289,160.189 106.5,165C 100.752,171.74 95.4186,178.74 90.5,186C 80.3874,187.888 76.2208,183.721 78,173.5C 86.2216,156.441 99.055,144.441 116.5,137.5 Z"/></g>
<g><path style="opacity:1" fill="#fafafa" d="M 311.5,137.5 C 323.074,136.663 326.907,141.663 323,152.5C 314.952,156.106 307.452,160.606 300.5,166C 295.245,172.526 290.245,179.193 285.5,186C 275.387,187.888 271.221,183.721 273,173.5C 281.222,156.441 294.055,144.441 311.5,137.5 Z"/></g>
<g><path style="opacity:1" fill="#fcec9b" d="M 465.5,222.5 C 471.674,221.173 473.841,223.506 472,229.5C 466.205,238.926 460.038,248.092 453.5,257C 448.504,257.664 446.67,255.498 448,250.5C 454.058,241.282 459.891,231.949 465.5,222.5 Z"/></g>
<g><path style="opacity:0.996" fill="#ae794d" d="M 8.5,298.5 C 4.72156,292.157 1.72156,285.49 -0.5,278.5C -0.5,274.167 -0.5,269.833 -0.5,265.5C 1.22671,262.398 3.22671,259.398 5.5,256.5C 8.51624,255.657 11.1829,254.157 13.5,252C 15.3333,251.833 17.1667,251.667 19,251.5C 41.004,254 54.8373,266 60.5,287.5C 60.1583,289.867 59.6583,292.2 59,294.5C 55.8075,303.026 49.9742,308.859 41.5,312C 28.7119,311.941 17.7119,307.441 8.5,298.5 Z"/></g>
<g><path style="opacity:1" fill="#ae794d" d="M 482.5,285.5 C 482.5,285.833 482.5,286.167 482.5,286.5C 471.953,302.484 466.619,320.15 466.5,339.5C 465.833,339.5 465.5,339.833 465.5,340.5C 458.395,343.797 451.062,344.297 443.5,342C 437.204,340.943 432.371,337.777 429,332.5C 428.333,324.833 428.333,317.167 429,309.5C 430.139,305.888 431.806,302.554 434,299.5C 440.377,292.455 447.877,286.955 456.5,283C 465.436,280.737 474.103,281.57 482.5,285.5 Z"/></g>
<g><path style="opacity:1" fill="#986842" d="M 482.5,286.5 C 486.12,288.285 488.953,290.952 491,294.5C 495.326,304.215 494.326,313.215 488,321.5C 481.818,328.864 474.651,334.864 466.5,339.5C 466.619,320.15 471.953,302.484 482.5,286.5 Z"/></g>
<g><path style="opacity:1" fill="#050302" d="M 175.5,328.5 C 177.857,328.337 180.19,328.503 182.5,329C 204.043,339.195 226.71,342.862 250.5,340C 264.874,337.985 278.707,334.151 292,328.5C 300.371,329.91 303.038,334.576 300,342.5C 291.328,348.416 281.828,352.583 271.5,355C 244.674,360.224 218.007,359.557 191.5,353C 183.994,350.664 177.16,347.164 171,342.5C 168.214,336.414 169.714,331.747 175.5,328.5 Z"/></g>
<g><path style="opacity:1" fill="#fcec9c" d="M 85.5,356.5 C 87.1992,356.34 88.8659,356.506 90.5,357C 97.6667,364.833 104.833,372.667 112,380.5C 113.825,385.986 111.992,388.486 106.5,388C 97.8607,379.538 90.1941,370.371 83.5,360.5C 83.7517,358.927 84.4183,357.594 85.5,356.5 Z"/></g>
<g><path style="opacity:1" fill="#fcec9b" d="M 420.5,362.5 C 423.518,362.335 426.518,362.502 429.5,363C 431.994,365.244 431.994,367.577 429.5,370C 418.526,372.306 407.526,374.472 396.5,376.5C 392.5,376.337 391,374.337 392,370.5C 392.5,369.333 393.333,368.5 394.5,368C 403.287,366.132 411.954,364.299 420.5,362.5 Z"/></g>
<g><path style="opacity:0.999" fill="#c58c56" d="M 125.5,433.5 C 125.5,434.833 125.5,436.167 125.5,437.5C 125.5,441.167 125.5,444.833 125.5,448.5C 97.7079,434.051 73.0412,415.385 51.5,392.5C 73.9097,408.731 97.9097,423.398 123.5,436.5C 124.176,435.398 124.842,434.398 125.5,433.5 Z"/></g>
<g><path style="opacity:1" fill="#ae794d" d="M 406.5,406.5 C 406.5,406.833 406.5,407.167 406.5,407.5C 389.168,412.503 373.834,421.17 360.5,433.5C 360.672,432.508 360.338,431.842 359.5,431.5C 357.607,415.46 364.274,404.626 379.5,399C 389.281,398.55 398.281,401.05 406.5,406.5 Z"/></g>
<g><path style="opacity:1" fill="#ae794d" d="M 187.5,466.5 C 187.167,466.5 186.833,466.5 186.5,466.5C 168.969,451.237 148.636,441.571 125.5,437.5C 125.5,436.167 125.5,434.833 125.5,433.5C 125.297,428.275 126.797,423.608 130,419.5C 146.289,401.167 164.789,398.667 185.5,412C 187.712,414.921 189.545,418.088 191,421.5C 192.88,429.063 194.046,436.73 194.5,444.5C 194.323,452.547 191.99,459.88 187.5,466.5 Z"/></g>
<g><path style="opacity:1" fill="#986842" d="M 406.5,407.5 C 407.239,407.369 407.906,407.536 408.5,408C 417.342,416.382 422.675,426.549 424.5,438.5C 423.771,443.293 421.937,447.626 419,451.5C 414.801,456.034 410.301,460.201 405.5,464C 397.219,467.579 389.219,467.079 381.5,462.5C 368.419,457.37 361.419,447.704 360.5,433.5C 373.834,421.17 389.168,412.503 406.5,407.5 Z"/></g>
<g><path style="opacity:1" fill="#c48b56" d="M 359.5,431.5 C 360.338,431.842 360.672,432.508 360.5,433.5C 361.419,447.704 368.419,457.37 381.5,462.5C 356.082,479.537 328.416,491.703 298.5,499C 266.103,505.56 234.77,502.227 204.5,489C 194.567,485.033 184.9,480.533 175.5,475.5C 179.35,472.739 183.017,469.739 186.5,466.5C 186.833,466.5 187.167,466.5 187.5,466.5C 219.332,478.607 251.665,479.773 284.5,470C 309.977,461.095 334.31,449.761 357.5,436C 359.037,434.89 359.703,433.39 359.5,431.5 Z"/></g>
<g><path style="opacity:1" fill="#986842" d="M 125.5,437.5 C 148.636,441.571 168.969,451.237 186.5,466.5C 183.017,469.739 179.35,472.739 175.5,475.5C 166.83,481.433 157.83,481.933 148.5,477C 138.308,472.141 130.808,464.641 126,454.5C 125.505,452.527 125.338,450.527 125.5,448.5C 125.5,444.833 125.5,441.167 125.5,437.5 Z"/></g>
</svg>
